<svg width="18" height="14" viewBox="0 0 18 14" fill="none" xmlns="http://www.w3.org/2000/svg">
<path d="M2 0C0.896875 0 0 0.896875 0 2V12C0 13.1031 0.896875 14 2 14H3V0H2ZM4 0V14H14V0H4ZM16 14C17.1031 14 18 13.1031 18 12V2C18 0.896875 17.1031 0 16 0H15V14H16ZM8 4.5C8 4.225 8.225 4 8.5 4H9.5C9.775 4 10 4.225 10 4.5V6H11.5C11.775 6 12 6.225 12 6.5V7.5C12 7.775 11.775 8 11.5 8H10V9.5C10 9.775 9.775 10 9.5 10H8.5C8.225 10 8 9.775 8 9.5V8H6.5C6.225 8 6 7.775 6 7.5V6.5C6 6.225 6.225 6 6.5 6H8V4.5Z" fill="#3B82F6"/>
</svg>
