<svg width="77" height="83" viewBox="0 0 77 83" fill="none" xmlns="http://www.w3.org/2000/svg">
<path fill-rule="evenodd" clip-rule="evenodd" d="M19.6287 0C21.5529 0.82629 23.1611 2.07304 24.4535 3.74041C25.2664 5.52254 25.6615 7.39275 25.6385 9.35102C24.3671 8.01926 22.9282 6.91414 21.3216 6.03566C19.6913 4.33292 19.1271 2.32092 19.6287 0Z" fill="#0AA2B4"/>
<path fill-rule="evenodd" clip-rule="evenodd" d="M30.8011 3.57056C31.0239 4.01039 31.1368 4.52045 31.1397 5.10072C31.3312 7.49645 30.2591 8.91339 27.9232 9.35119C27.2687 6.58516 28.2281 4.65816 30.8011 3.57056Z" fill="#0AA2B4"/>
<path fill-rule="evenodd" clip-rule="evenodd" d="M19.6276 7.99089C21.4199 7.78602 22.887 8.38108 24.0292 9.77609C21.8489 10.7812 19.8738 10.4696 18.104 8.84098C18.6005 8.50741 19.1084 8.22399 19.6276 7.99089Z" fill="#0AA2B4"/>
<path fill-rule="evenodd" clip-rule="evenodd" d="M35.8803 8.671C43.9035 8.03598 51.2959 9.87779 58.0574 14.1966C59.0794 14.9851 59.3333 15.9769 58.8192 17.1719C58.3013 17.7869 57.6524 18.0419 56.8723 17.937C46.6812 11.4219 36.0159 10.5152 24.8764 15.2167C14.1793 21.0412 8.28225 30.0806 7.18559 42.3347C6.85988 29.469 12.1361 19.693 23.0142 13.0065C27.0574 10.7556 31.346 9.31043 35.8803 8.671Z" fill="#073F48"/>
<path fill-rule="evenodd" clip-rule="evenodd" d="M18.104 13.4315C18.3012 13.1057 18.5834 12.9641 18.9505 13.0065C18.7118 13.2397 18.4295 13.3813 18.104 13.4315Z" fill="#1A292C"/>
<path fill-rule="evenodd" clip-rule="evenodd" d="M63.6432 14.7916C63.6432 16.8318 63.6432 18.8721 63.6432 20.9123C61.781 20.9123 59.9188 20.9123 58.0566 20.9123C59.832 20.7433 61.6378 20.6865 63.4739 20.7423C63.4184 18.7284 63.4748 16.7448 63.6432 14.7916Z" fill="#8AD2DA"/>
<path fill-rule="evenodd" clip-rule="evenodd" d="M25.5533 22.4424C28.2249 22.0539 28.6198 22.7056 26.7383 24.3976C25.8045 24.9114 24.8734 24.9398 23.945 24.4826C23.8321 24.1992 23.8321 23.9159 23.945 23.6325C24.3732 23.057 24.9093 22.6603 25.5533 22.4424Z" fill="#0E9EB0"/>
<path fill-rule="evenodd" clip-rule="evenodd" d="M36.218 14.6216C38.8858 14.5237 41.5379 14.6653 44.1746 15.0467C33.5009 14.6704 24.6695 18.4958 17.6807 26.5229C15.5124 29.064 13.5938 31.7843 11.9248 34.6838C15.0137 24.8945 21.475 18.5188 31.3086 15.5567C32.9554 15.1718 34.5919 14.86 36.218 14.6216Z" fill="#0F9FB1"/>
<path fill-rule="evenodd" clip-rule="evenodd" d="M30.1244 25.5028C29.456 26.7327 28.9764 28.0361 28.6854 29.4132C28.6036 29.2521 28.5755 29.082 28.6007 28.9032C28.8383 27.6337 29.3461 26.5001 30.1244 25.5028Z" fill="#071D27"/>
<path fill-rule="evenodd" clip-rule="evenodd" d="M58.0567 20.9123C59.9189 20.9123 61.7811 20.9123 63.6433 20.9123C63.6433 18.8721 63.6433 16.8318 63.6433 14.7916C63.6621 14.6867 63.7185 14.6017 63.8126 14.5366C65.9005 14.4232 67.9885 14.4232 70.0764 14.5366C70.161 14.6216 70.2456 14.7066 70.3303 14.7916C70.4149 16.7744 70.4432 18.758 70.4149 20.7423C72.2216 20.7139 74.0274 20.7423 75.8322 20.8273C75.9732 20.9689 76.1144 21.1107 76.2555 21.2523C76.3684 23.2925 76.3684 25.3328 76.2555 27.373C76.1708 27.458 76.0862 27.543 76.0015 27.628C74.1568 27.8752 72.2946 27.9602 70.4149 27.883C70.4432 29.8107 70.4149 31.7377 70.3303 33.6637C70.2033 33.7701 70.0621 33.8551 69.9071 33.9187C67.9885 34.0321 66.0698 34.0321 64.1512 33.9187C63.9961 33.8551 63.8549 33.7701 63.728 33.6637C63.6433 31.6809 63.6151 29.6973 63.6433 27.713C61.7239 27.7414 59.8052 27.713 57.8875 27.628C57.8028 27.543 57.7182 27.458 57.6335 27.373C57.5206 25.3328 57.5206 23.2925 57.6335 21.2523C57.7534 21.1025 57.8946 20.9893 58.0567 20.9123Z" fill="#0BA4B5"/>
<path fill-rule="evenodd" clip-rule="evenodd" d="M20.1359 27.203C21.0499 27.1705 21.9529 27.2555 22.8445 27.458C24.7141 28.3674 24.6014 28.9907 22.5059 29.3282C21.091 29.6262 19.9623 29.2012 19.1201 28.0531C19.4015 27.6872 19.7401 27.4039 20.1359 27.203Z" fill="#0E9FB1"/>
<path fill-rule="evenodd" clip-rule="evenodd" d="M28.6008 28.9031C28.5756 29.0819 28.6037 29.252 28.6855 29.4131C28.9765 28.036 29.4561 26.7326 30.1244 25.5027C31.9291 22.4189 34.5812 20.4637 38.0811 19.6371C39.0503 19.5152 40.0095 19.5718 40.959 19.8071C42.022 20.2275 43.0377 20.7376 44.0062 21.3373C44.3861 21.4913 44.7811 21.5763 45.1913 21.5923C46.9101 21.274 48.603 20.849 50.27 20.3171C51.604 19.8965 52.5351 20.3216 53.0633 21.5923C53.8985 24.1767 53.6729 26.6702 52.3861 29.0731C51.0819 30.3266 49.7276 31.5168 48.3231 32.6435C47.5149 34.5848 47.5713 36.5116 48.4924 38.4241C49.7755 40.1512 51.0169 41.908 52.2168 43.6947C54.9598 48.8146 55.242 54.0852 53.0633 59.5064C52.4041 61.0007 51.6986 62.4741 50.9471 63.9269C49.5319 64.1355 48.1212 64.3621 46.7149 64.607C46.6885 63.913 46.7731 63.2329 46.9688 62.5668C47.6377 60.9404 48.2583 59.2968 48.831 57.6362C49.2459 55.7288 48.5407 55.0771 46.7149 55.681C44.6126 56.7174 43.5403 58.4176 43.4984 60.7816C43.6831 62.1647 43.796 63.5532 43.8369 64.947C42.9306 64.9587 42.0277 65.0154 41.1283 65.117C40.4652 59.1674 37.4743 54.8319 32.1559 52.1106C28.9959 49.7756 28.6291 47.0837 31.0555 44.0347C32.0909 41.2578 32.2602 38.4243 31.5634 35.5338C31.4048 34.9972 31.1508 34.5156 30.8016 34.0886C30.9145 33.9752 31.0272 33.9752 31.1402 34.0886C32.3352 35.0052 33.5768 35.8553 34.8646 36.6389C36.9809 37.3508 38.4762 36.6991 39.3507 34.6837C39.6687 31.4112 38.7659 28.5209 36.6421 26.0128C37.143 27.751 37.6509 29.508 38.1657 31.2833C38.2786 32.2468 38.2786 33.2102 38.1657 34.1737C37.5986 35.4927 36.611 36.0311 35.2031 35.7888C34.378 35.3456 33.6443 34.7789 33.0024 34.0886C31.5273 33.2867 30.1449 32.3516 28.8547 31.2833C28.4219 30.5048 28.3372 29.7115 28.6008 28.9031Z" fill="#044049"/>
<path fill-rule="evenodd" clip-rule="evenodd" d="M18.1047 13.4315C9.86225 19.7917 5.12212 28.1793 3.88426 38.5943C3.70871 39.6273 3.59579 40.789 3.54568 42.0796C3.59122 43.9385 3.76051 45.4404 4.05356 46.5851C5.29208 55.8486 9.63726 63.2444 17.0889 68.7726C17.8177 69.0995 18.5512 69.0995 19.2897 68.7726C21.4876 67.1873 23.914 66.1106 26.5692 65.5422C27.6978 65.4288 28.8263 65.4288 29.955 65.5422C32.0723 65.8775 34.1602 66.2459 36.2187 66.6473C37.5263 66.95 39.0782 67.12 40.8742 67.1574C42.034 67.1133 43.1908 67.0283 44.3447 66.9023C44.068 66.8184 43.7858 66.7901 43.4982 66.8173C45.9103 66.5273 48.3369 66.159 50.7777 65.7122C52.9221 65.5686 53.4582 66.447 52.3859 68.3475C50.7985 69.953 48.9081 71.0581 46.7147 71.6629C43.0357 72.4681 39.3113 72.8081 35.5416 72.683C36.7474 73.3404 37.989 73.8789 39.2659 74.2982C39.1918 74.2871 39.1353 74.3153 39.0967 74.3832C39.4114 74.4995 39.6936 74.6695 39.9431 74.8932C39.4727 74.9186 39.388 75.0603 39.6892 75.3183C40.2067 75.1566 40.7427 75.1 41.2974 75.1482C41.3108 75.3914 41.2544 75.6182 41.1281 75.8283C41.3623 76.2663 41.5035 76.2095 41.5514 75.6583C41.7405 75.3822 41.9944 75.2122 42.3132 75.1482C44.8041 75.4029 47.2869 75.3463 49.7619 74.9782C49.7012 75.3635 49.8141 75.6751 50.1005 75.9133C50.0442 75.9699 49.9876 76.0267 49.9312 76.0834C50.1737 76.1293 50.343 76.016 50.4391 75.7433C49.9687 75.718 49.884 75.5762 50.1852 75.3183C50.5019 75.5728 50.6712 75.9128 50.693 76.3384C50.7494 76.225 50.806 76.1117 50.8623 75.9983C51.0316 76.1684 51.2009 76.3384 51.3702 76.5084C51.4747 76.347 51.4466 76.2054 51.2856 76.0834C51.5029 75.9671 51.7005 75.9954 51.8781 76.1684C51.9917 75.6019 51.7941 75.4034 51.2856 75.5733C51.4232 75.3499 51.5925 75.1515 51.7934 74.9782C51.5263 74.8426 51.2443 74.7575 50.947 74.7232C53.5251 74.0788 55.8952 73.0303 58.0572 71.5779C60.5071 69.9419 62.7926 68.0717 64.9134 65.9672C65.4594 64.8861 65.1491 64.4044 63.9823 64.5221C61.0611 67.5693 57.6753 69.9496 53.8249 71.6629C53.3419 71.906 52.8341 72.0476 52.3013 72.0879C51.5127 72.2865 50.7228 72.4281 49.9312 72.513C50.9556 72.0748 51.8584 71.4798 52.6399 70.7278C53.8593 69.6998 54.6211 68.3963 54.9253 66.8173C60.866 63.5149 65.6627 58.981 69.315 53.2159C72.9503 46.5059 73.9661 39.4217 72.3622 31.9635C72.8323 30.3917 73.6788 30.1083 74.9016 31.1134C79.5755 45.6477 76.4436 58.2006 65.506 68.7726C65.6189 68.886 65.7316 68.886 65.8445 68.7726C67.0973 67.4005 68.4516 66.1536 69.9075 65.0321C71.3834 64.7582 72.0323 65.3533 71.8543 66.8173C69.3367 70.0825 66.4306 72.9446 63.1359 75.4033C61.8982 76.2794 60.6003 77.0445 59.2422 77.6985C56.7034 79.0005 54.1075 80.1339 51.4549 81.0989C38.1937 85.0379 26.0048 82.856 14.8881 74.5532C4.25721 65.8877 -0.68048 54.6382 0.075232 40.8045C1.37758 29.3101 6.82315 20.4409 16.4118 14.1966C16.9596 13.8929 17.524 13.6379 18.1047 13.4315Z" fill="#054049"/>
<path fill-rule="evenodd" clip-rule="evenodd" d="M52.6394 70.7278C51.858 71.4798 50.9551 72.0749 49.9308 72.513C50.7224 72.4282 51.5123 72.2866 52.3008 72.088C50.8448 72.6943 49.3211 73.0627 47.73 73.1931C49.4699 72.5462 51.1063 71.7243 52.6394 70.7278Z" fill="#0E222A"/>
<path fill-rule="evenodd" clip-rule="evenodd" d="M36.2188 66.6473C38.6423 66.7913 41.0687 66.8479 43.4982 66.8173C43.7859 66.7901 44.0681 66.8183 44.3447 66.9023C43.1908 67.0283 42.034 67.1133 40.8742 67.1573C39.0782 67.1199 37.5263 66.9499 36.2188 66.6473Z" fill="#04212A"/>
<path fill-rule="evenodd" clip-rule="evenodd" d="M23.8605 31.7935C24.3924 31.8443 24.7593 32.1277 24.9609 32.6435C25.8998 35.0388 26.9719 37.3624 28.1774 39.6143C28.2937 40.3189 28.3784 41.0273 28.4314 41.7395C28.2509 43.5521 28.0816 45.3655 27.9235 47.1801C28.0342 49.4424 28.9934 51.256 30.8014 52.6207C33.1095 53.9181 35.1127 55.5899 36.8112 57.6363C38.4518 59.7976 39.3264 62.2346 39.4352 64.9471C36.4737 64.8199 33.5392 64.4515 30.6321 63.842C26.0958 63.4529 22.0046 64.6147 18.3586 67.3273C16.2145 65.8601 14.9167 63.8199 14.4649 61.2067C14.1079 58.4498 14.4465 55.7863 15.4807 53.2158C16.3352 51.8121 16.9277 50.3103 17.2582 48.7103C17.2685 48.3259 17.1556 47.9859 16.9196 47.6902C15.4713 47.1417 14.2017 46.32 13.1106 45.2249C12.3197 44.0314 12.0376 42.7279 12.2641 41.3145C12.397 41.0108 12.5944 40.7558 12.8567 40.5494C13.4209 40.3794 13.9853 40.2094 14.5496 40.0394C15.2435 38.6479 16.1463 37.401 17.2582 36.2989C18.7261 35.6189 20.2497 35.1088 21.829 34.7688C22.5287 33.7869 23.2059 32.795 23.8605 31.7935Z" fill="#06A3B5"/>
<path fill-rule="evenodd" clip-rule="evenodd" d="M16.2418 31.2834C17.343 31.2269 18.1612 31.6804 18.6965 32.6435C18.783 33.3226 18.4725 33.6626 17.7654 33.6636C16.3948 33.4011 15.8869 32.6076 16.2418 31.2834Z" fill="#0E9EB0"/>
<path fill-rule="evenodd" clip-rule="evenodd" d="M58.0567 71.5778C55.8947 73.0303 53.5246 74.0788 50.9465 74.7232C51.2438 74.7575 51.5258 74.8425 51.793 74.9782C51.592 75.1514 51.4227 75.3499 51.2851 75.5733C51.7936 75.4034 51.9912 75.6018 51.8776 76.1683C51.7 75.9954 51.5025 75.967 51.2851 76.0833C51.4461 76.2054 51.4742 76.347 51.3697 76.5084C51.2005 76.3383 51.0312 76.1683 50.8619 75.9983C50.8055 76.1117 50.749 76.2249 50.6926 76.3383C50.6707 75.9128 50.5015 75.5727 50.1847 75.3182C49.8835 75.5761 49.9682 75.7179 50.4386 75.7433C50.3425 76.016 50.1732 76.1292 49.9308 76.0833C49.9871 76.0267 50.0437 75.9699 50.1001 75.9133C49.8136 75.6751 49.7007 75.3635 49.7615 74.9782C47.2865 75.3463 44.8036 75.4029 42.3127 75.1482C41.9939 75.2121 41.74 75.3822 41.5509 75.6583C41.503 76.2095 41.3618 76.2663 41.1277 75.8283C41.254 75.6181 41.3103 75.3913 41.297 75.1482C40.7422 75.0999 40.2062 75.1565 39.6887 75.3182C39.3875 75.0603 39.4722 74.9185 39.9426 74.8932C39.6931 74.6694 39.4109 74.4994 39.0962 74.3831C39.1348 74.3153 39.1913 74.2871 39.2655 74.2981C44.1976 75.619 49.0505 75.364 53.8245 73.533C55.2389 72.8793 56.6496 72.2276 58.0567 71.5778Z" fill="#0C323B"/>
</svg>
